<svg width="342" height="73" viewBox="0 0 342 73" fill="none" xmlns="http://www.w3.org/2000/svg">
<path d="M32.5657 72.4463L28.3657 72.9713C29.9407 69.5963 30.9907 66.0713 30.9907 62.2463C16.7407 60.8963 7.8157 52.5713 7.8157 42.8213C7.8157 34.0463 15.3157 25.4963 30.9907 25.4963V12.7463C23.9407 14.8463 20.4157 23.3963 12.9157 23.3963C4.6657 23.3963 0.465704 16.1213 0.465704 5.7713V3.5963H1.8157C2.0407 10.3463 6.6907 12.0713 15.0907 12.0713C21.6157 12.0713 26.9407 11.3213 30.9907 10.9463V1.1963L35.3407 0.521297C33.9907 3.4463 32.9407 7.1213 32.6407 10.7963H34.2157C49.3657 10.7963 62.7907 21.6713 62.7907 35.8463C62.7907 51.5213 50.7907 62.3963 34.8907 62.3963C34.0657 62.3963 33.5407 62.3963 32.5657 62.3213V72.4463ZM34.8157 60.8963C45.1657 60.8963 50.0407 52.4213 50.0407 36.9713C50.0407 21.0713 44.2657 12.2963 34.2157 12.2963C33.6157 12.2963 32.9407 12.3713 32.5657 12.4463V34.1213L37.3657 29.3213L43.8907 35.8463L37.5157 42.2213L32.5657 37.2713V60.7463C33.2407 60.8213 34.0657 60.8963 34.8157 60.8963ZM19.7407 42.5963C19.7407 52.2713 23.5657 58.8713 30.9907 60.5213V26.9963C23.6407 27.2963 19.7407 32.9963 19.7407 42.5963ZM82.0688 62.0963C77.5688 60.8213 71.6438 57.2213 69.6938 53.8463C70.5188 51.1463 70.8188 48.6713 70.8188 43.7213C69.6188 43.7963 68.3438 44.0213 66.7688 44.2463L67.7438 42.1463H70.8188V32.1713L76.5188 30.5963L81.2438 23.6963L88.5938 27.8963C90.4688 28.9463 91.3688 31.2713 89.5688 33.3713C86.9438 36.5213 83.9438 39.2963 80.8688 42.1463H89.7188L88.7438 43.9463C86.7188 43.7213 83.1938 43.4963 79.1438 43.4963C78.9938 46.0463 78.7688 48.3713 78.3938 50.0213C80.1188 51.8963 82.5938 53.6213 86.3438 55.1963C86.9438 54.5213 87.6188 53.7713 88.3688 52.8713L89.4188 53.9963C88.0688 55.2713 86.7938 56.6213 85.4438 58.1213L82.0688 62.0963ZM79.2188 41.6963C81.1688 39.8213 83.0438 38.0963 85.0688 36.0713C83.2688 34.4963 81.4688 33.2963 79.2188 32.1713V41.6963ZM110.257 62.0963C105.382 60.7463 98.9317 57.2963 96.9817 53.8463C97.8067 51.0713 98.1067 48.5963 98.1067 43.4963V32.5463L94.0567 30.5963C93.5317 31.1213 93.0067 31.7963 92.4067 32.4713L91.3567 31.3463C93.7567 29.1713 95.9317 26.6963 98.4817 23.6963L106.507 27.2213V40.2713C106.507 43.6463 106.207 47.6963 105.682 50.0213C107.407 51.9713 109.957 53.6213 113.857 55.2713C114.082 50.2463 114.232 45.9713 114.232 41.4713C114.232 38.8463 114.157 36.1463 114.082 33.2213C112.432 32.1713 110.932 31.3463 108.982 30.5963L113.782 23.6963L118.957 26.0963C121.132 27.1463 122.407 28.6463 122.407 32.2463V50.1713C117.082 54.8963 114.457 57.3713 110.257 62.0963ZM167.153 72.4463L162.953 72.9713C164.528 69.5963 165.578 66.0713 165.578 61.8713V61.6463H144.428V60.1463H150.428V49.7963C150.428 26.8463 149.753 21.0713 148.553 14.9963H144.053V13.4963C152.078 13.5713 158.903 12.4463 161.903 11.5463C161.303 19.4213 161.078 24.1463 161.078 34.7213V38.0213H165.578V1.1963L169.928 0.521297C168.203 4.1213 167.153 9.1463 167.153 13.4213V17.3213C168.503 12.8963 171.053 10.7963 175.403 10.7963C185.303 10.7963 193.703 16.1963 193.703 24.0713C193.703 32.3213 185.903 38.6213 173.378 39.4463C176.903 43.7213 181.028 50.6213 186.878 56.8463C191.528 61.9463 195.203 64.7213 198.653 64.7213C200.378 64.7213 202.028 64.0463 203.753 62.6213L204.653 63.5963C204.203 64.1213 203.678 64.5713 203.078 65.0963C198.878 69.0713 194.303 71.2463 190.028 71.2463C186.653 71.2463 183.503 69.8963 180.728 66.8963C173.753 59.2463 175.853 47.6213 171.878 39.5213H167.153V60.1463H171.803V61.6463H167.153V72.4463ZM167.153 32.8463V38.0213H170.678C178.253 38.0213 180.953 33.4463 180.953 25.1963C180.953 16.8713 178.553 12.3713 174.503 12.3713C168.428 12.3713 167.153 20.9213 167.153 32.8463ZM165.578 60.1463V39.5213H161.078C161.153 46.1963 161.453 53.8463 161.978 60.1463H165.578ZM224.772 62.0963C221.472 60.3713 217.947 56.9963 216.147 53.9213C214.047 56.8463 211.497 59.3963 208.872 62.0963C205.572 60.3713 202.047 56.9963 200.247 53.8463C201.072 51.0713 201.372 48.5963 201.372 43.4963V32.5463L197.322 30.5963C196.797 31.1213 196.272 31.7963 195.672 32.4713L194.622 31.3463C197.022 29.1713 199.197 26.6963 201.747 23.6963L209.772 27.2213V40.2713C209.772 44.9213 209.547 48.2963 208.947 50.7713C209.772 52.4213 211.122 53.5463 213.222 55.0463C214.572 53.4713 215.847 51.6713 216.972 49.7213C217.197 48.0713 217.272 46.1213 217.272 43.4963V33.2213C215.697 32.0963 213.972 31.2713 212.247 30.5963L217.047 23.6963L222.597 26.2463C225.147 27.4463 225.672 29.6213 225.672 31.8713V40.2713C225.672 44.9213 225.447 48.2963 224.847 50.7713C225.747 52.4213 227.022 53.5463 229.272 55.1213C229.797 54.5963 230.322 53.9963 230.847 53.3213L231.897 54.4463C229.497 56.6213 227.322 59.0963 224.772 62.0963ZM245.112 62.0963L234.537 54.2963L233.112 53.2463C234.612 52.1213 235.737 50.9963 238.437 48.4463L239.937 47.0213L233.562 42.0713V41.0963C233.562 38.3213 234.087 34.4963 234.912 31.7963L239.862 29.4713L246.012 23.6963L256.887 30.8963L257.862 31.5713L251.637 37.6463L256.062 40.7963C257.262 41.6213 258.087 42.9713 258.087 44.7713C258.087 46.7213 257.412 51.6713 256.737 53.9213L250.662 56.8463L245.112 62.0963ZM245.412 41.7713L250.212 37.1963C247.662 34.5713 245.187 32.6963 242.037 31.1213C241.437 33.5213 241.062 36.0713 241.062 38.3213C242.412 39.4463 243.762 40.4963 245.412 41.7713ZM250.512 46.8713C249.012 45.2963 247.662 44.2463 245.862 43.2713L241.062 47.9213C243.612 50.6963 246.087 52.9463 249.537 54.8963C250.212 51.8213 250.512 48.5963 250.512 46.8713ZM264.29 18.5213C266.54 14.3213 269.09 10.8713 271.79 8.1713L276.14 11.5463L265.19 19.3463L264.29 18.5213ZM273.59 62.0963C270.29 60.3713 266.765 56.9963 264.965 53.8463C265.79 51.0713 266.09 48.5963 266.09 43.4963V33.2213C264.515 32.0213 263.465 31.3463 262.04 30.7463C261.515 31.2713 260.99 31.7963 260.465 32.4713L259.415 31.3463C261.815 29.1713 263.99 26.6963 266.54 23.6963L271.415 26.2463C274.19 27.6713 274.49 29.6213 274.49 31.8713V40.2713C274.49 44.3963 274.265 48.2963 273.665 50.7713C274.565 52.4213 275.84 53.5463 278.09 55.1213C278.615 54.5963 279.14 53.9963 279.665 53.3213L280.715 54.4463C278.315 56.6213 276.14 59.0963 273.59 62.0963ZM292.436 62.0963C289.136 60.3713 285.611 56.9963 283.811 53.8463C284.636 51.0713 284.936 48.5963 284.936 43.4963V32.5463L280.886 30.5963C280.361 31.1213 279.836 31.7963 279.236 32.4713L278.186 31.3463C280.586 29.1713 282.761 26.6963 285.311 23.6963L293.336 27.2213V31.0463C295.136 28.1963 297.086 25.7213 299.111 23.6963L305.861 28.8713L301.286 34.7963V39.9713L299.486 40.5713C299.711 38.9963 299.861 37.4213 299.861 35.0213C298.436 33.5963 296.786 32.3963 295.136 31.3463C294.536 32.0963 293.936 32.8463 293.336 33.7463V40.2713C293.336 44.3963 293.186 47.9963 292.511 50.7713C293.336 52.4213 294.686 53.5463 296.861 55.0463C297.461 54.3713 298.061 53.6963 298.736 52.8713L299.786 53.9963C298.436 55.2713 297.161 56.6213 295.811 58.1213L292.436 62.0963ZM333.993 62.0963C330.693 60.3713 327.168 56.9963 325.368 53.9213C323.268 56.8463 320.718 59.3963 318.093 62.0963C314.793 60.3713 311.268 56.9963 309.468 53.8463C310.293 51.0713 310.593 48.5963 310.593 43.4963V32.5463L306.543 30.5963C306.018 31.1213 305.493 31.7963 304.893 32.4713L303.843 31.3463C306.243 29.1713 308.418 26.6963 310.968 23.6963L318.993 27.2213V40.2713C318.993 44.9213 318.768 48.2963 318.168 50.7713C318.993 52.4213 320.343 53.5463 322.443 55.0463C323.793 53.4713 325.068 51.6713 326.193 49.7213C326.418 48.0713 326.493 46.1213 326.493 43.4963V33.2213C324.918 32.0963 323.193 31.2713 321.468 30.5963L326.268 23.6963L331.818 26.2463C334.368 27.4463 334.893 29.6213 334.893 31.8713V40.2713C334.893 44.9213 334.668 48.2963 334.068 50.7713C334.968 52.4213 336.243 53.5463 338.493 55.1213C339.018 54.5963 339.543 53.9963 340.068 53.3213L341.118 54.4463C338.718 56.6213 336.543 59.0963 333.993 62.0963Z" fill="white"/>
</svg>
