<svg width="449" height="97" viewBox="0 0 449 97" fill="none" xmlns="http://www.w3.org/2000/svg">
<path d="M42.8338 96.0463L37.2338 96.7463C39.3338 92.2463 40.7338 87.5463 40.7338 82.4463C21.7338 80.6463 9.83377 69.5463 9.83377 56.5463C9.83377 44.8463 19.8338 33.4463 40.7338 33.4463V16.4463C31.3338 19.2463 26.6338 30.6463 16.6338 30.6463C5.63377 30.6463 0.0337707 20.9463 0.0337707 7.14629V4.2463H1.83377C2.13377 13.2463 8.33377 15.5463 19.5338 15.5463C28.2338 15.5463 35.3338 14.5463 40.7338 14.0463V1.0463L46.5338 0.146296C44.7338 4.0463 43.3338 8.9463 42.9338 13.8463H45.0338C65.2338 13.8463 83.1338 28.3463 83.1338 47.2463C83.1338 68.1463 67.1338 82.6463 45.9338 82.6463C44.8338 82.6463 44.1338 82.6463 42.8338 82.5463V96.0463ZM45.8338 80.6463C59.6338 80.6463 66.1338 69.3463 66.1338 48.7463C66.1338 27.5463 58.4338 15.8463 45.0338 15.8463C44.2338 15.8463 43.3338 15.9463 42.8338 16.0463V44.9463L49.2338 38.5463L57.9338 47.2463L49.4338 55.7463L42.8338 49.1463V80.4463C43.7338 80.5463 44.8338 80.6463 45.8338 80.6463ZM25.7338 56.2463C25.7338 69.1463 30.8338 77.9463 40.7338 80.1463V35.4463C30.9338 35.8463 25.7338 43.4463 25.7338 56.2463ZM108.171 82.2463C102.171 80.5463 94.2713 75.7463 91.6713 71.2463C92.7713 67.6463 93.1713 64.3463 93.1713 57.7463C91.5713 57.8463 89.8713 58.1463 87.7713 58.4463L89.0713 55.6463H93.1713V42.3463L100.771 40.2463L107.071 31.0463L116.871 36.6463C119.371 38.0463 120.571 41.1463 118.171 43.9463C114.671 48.1463 110.671 51.8463 106.571 55.6463H118.371L117.071 58.0463C114.371 57.7463 109.671 57.4463 104.271 57.4463C104.071 60.8463 103.771 63.9463 103.271 66.1463C105.571 68.6463 108.871 70.9463 113.871 73.0463C114.671 72.1463 115.571 71.1463 116.571 69.9463L117.971 71.4463C116.171 73.1463 114.471 74.9463 112.671 76.9463L108.171 82.2463ZM104.371 55.0463C106.971 52.5463 109.471 50.2463 112.171 47.5463C109.771 45.4463 107.371 43.8463 104.371 42.3463V55.0463ZM145.088 82.2463C138.588 80.4463 129.988 75.8463 127.388 71.2463C128.488 67.5463 128.888 64.2463 128.888 57.4463V42.8463L123.488 40.2463C122.788 40.9463 122.088 41.8463 121.288 42.7463L119.888 41.2463C123.088 38.3463 125.988 35.0463 129.388 31.0463L140.088 35.7463V53.1463C140.088 57.6463 139.688 63.0463 138.988 66.1463C141.288 68.7463 144.688 70.9463 149.888 73.1463C150.188 66.4463 150.388 60.7463 150.388 54.7463C150.388 51.2463 150.288 47.6463 150.188 43.7463C147.988 42.3463 145.988 41.2463 143.388 40.2463L149.788 31.0463L156.688 34.2463C159.588 35.6463 161.288 37.6463 161.288 42.4463V66.3463C154.188 72.6463 150.688 75.9463 145.088 82.2463ZM219.617 96.0463L214.017 96.7463C216.117 92.2463 217.517 87.5463 217.517 81.9463V81.6463H189.317V79.6463H197.317V65.8463C197.317 35.2463 196.417 27.5463 194.817 19.4463H188.817V17.4463C199.517 17.5463 208.617 16.0463 212.617 14.8463C211.817 25.3463 211.517 31.6463 211.517 45.7463V50.1463H217.517V1.0463L223.317 0.146296C221.017 4.9463 219.617 11.6463 219.617 17.3463V22.5463C221.417 16.6463 224.817 13.8463 230.617 13.8463C243.817 13.8463 255.017 21.0463 255.017 31.5463C255.017 42.5463 244.617 50.9463 227.917 52.0463C232.617 57.7463 238.117 66.9463 245.917 75.2463C252.117 82.0463 257.017 85.7463 261.617 85.7463C263.917 85.7463 266.117 84.8463 268.417 82.9463L269.617 84.2463C269.017 84.9463 268.317 85.5463 267.517 86.2463C261.917 91.5463 255.817 94.4463 250.117 94.4463C245.617 94.4463 241.417 92.6463 237.717 88.6463C228.417 78.4463 231.217 62.9463 225.917 52.1463H219.617V79.6463H225.817V81.6463H219.617V96.0463ZM219.617 43.2463V50.1463H224.317C234.417 50.1463 238.017 44.0463 238.017 33.0463C238.017 21.9463 234.817 15.9463 229.417 15.9463C221.317 15.9463 219.617 27.3463 219.617 43.2463ZM217.517 79.6463V52.1463H211.517C211.617 61.0463 212.017 71.2463 212.717 79.6463H217.517ZM295.776 82.2463C291.376 79.9463 286.676 75.4463 284.276 71.3463C281.476 75.2463 278.076 78.6463 274.576 82.2463C270.176 79.9463 265.476 75.4463 263.076 71.2463C264.176 67.5463 264.576 64.2463 264.576 57.4463V42.8463L259.176 40.2463C258.476 40.9463 257.776 41.8463 256.976 42.7463L255.576 41.2463C258.776 38.3463 261.676 35.0463 265.076 31.0463L275.776 35.7463V53.1463C275.776 59.3463 275.476 63.8463 274.676 67.1463C275.776 69.3463 277.576 70.8463 280.376 72.8463C282.176 70.7463 283.876 68.3463 285.376 65.7463C285.676 63.5463 285.776 60.9463 285.776 57.4463V43.7463C283.676 42.2463 281.376 41.1463 279.076 40.2463L285.476 31.0463L292.876 34.4463C296.276 36.0463 296.976 38.9463 296.976 41.9463V53.1463C296.976 59.3463 296.676 63.8463 295.876 67.1463C297.076 69.3463 298.776 70.8463 301.776 72.9463C302.476 72.2463 303.176 71.4463 303.876 70.5463L305.276 72.0463C302.076 74.9463 299.176 78.2463 295.776 82.2463ZM322.228 82.2463L308.128 71.8463L306.228 70.4463C308.228 68.9463 309.728 67.4463 313.328 64.0463L315.328 62.1463L306.828 55.5463V54.2463C306.828 50.5463 307.528 45.4463 308.628 41.8463L315.228 38.7463L323.428 31.0463L337.928 40.6463L339.228 41.5463L330.928 49.6463L336.828 53.8463C338.428 54.9463 339.528 56.7463 339.528 59.1463C339.528 61.7463 338.628 68.3463 337.728 71.3463L329.628 75.2463L322.228 82.2463ZM322.628 55.1463L329.028 49.0463C325.628 45.5463 322.328 43.0463 318.128 40.9463C317.328 44.1463 316.828 47.5463 316.828 50.5463C318.628 52.0463 320.428 53.4463 322.628 55.1463ZM329.428 61.9463C327.428 59.8463 325.628 58.4463 323.228 57.1463L316.828 63.3463C320.228 67.0463 323.528 70.0463 328.128 72.6463C329.028 68.5463 329.428 64.2463 329.428 61.9463ZM347.133 24.1463C350.133 18.5463 353.533 13.9463 357.133 10.3463L362.933 14.8463L348.333 25.2463L347.133 24.1463ZM359.533 82.2463C355.133 79.9463 350.433 75.4463 348.033 71.2463C349.133 67.5463 349.533 64.2463 349.533 57.4463V43.7463C347.433 42.1463 346.033 41.2463 344.133 40.4463C343.433 41.1463 342.733 41.8463 342.033 42.7463L340.633 41.2463C343.833 38.3463 346.733 35.0463 350.133 31.0463L356.633 34.4463C360.333 36.3463 360.733 38.9463 360.733 41.9463V53.1463C360.733 58.6463 360.433 63.8463 359.633 67.1463C360.833 69.3463 362.533 70.8463 365.533 72.9463C366.233 72.2463 366.933 71.4463 367.633 70.5463L369.033 72.0463C365.833 74.9463 362.933 78.2463 359.533 82.2463ZM383.994 82.2463C379.594 79.9463 374.894 75.4463 372.494 71.2463C373.594 67.5463 373.994 64.2463 373.994 57.4463V42.8463L368.594 40.2463C367.894 40.9463 367.194 41.8463 366.394 42.7463L364.994 41.2463C368.194 38.3463 371.094 35.0463 374.494 31.0463L385.194 35.7463V40.8463C387.594 37.0463 390.194 33.7463 392.894 31.0463L401.894 37.9463L395.794 45.8463V52.7463L393.394 53.5463C393.694 51.4463 393.894 49.3463 393.894 46.1463C391.994 44.2463 389.794 42.6463 387.594 41.2463C386.794 42.2463 385.994 43.2463 385.194 44.4463V53.1463C385.194 58.6463 384.994 63.4463 384.094 67.1463C385.194 69.3463 386.994 70.8463 389.894 72.8463C390.694 71.9463 391.494 71.0463 392.394 69.9463L393.794 71.4463C391.994 73.1463 390.294 74.9463 388.494 76.9463L383.994 82.2463ZM438.737 82.2463C434.337 79.9463 429.637 75.4463 427.237 71.3463C424.437 75.2463 421.037 78.6463 417.537 82.2463C413.137 79.9463 408.437 75.4463 406.037 71.2463C407.137 67.5463 407.537 64.2463 407.537 57.4463V42.8463L402.137 40.2463C401.437 40.9463 400.737 41.8463 399.937 42.7463L398.537 41.2463C401.737 38.3463 404.637 35.0463 408.037 31.0463L418.737 35.7463V53.1463C418.737 59.3463 418.437 63.8463 417.637 67.1463C418.737 69.3463 420.537 70.8463 423.337 72.8463C425.137 70.7463 426.837 68.3463 428.337 65.7463C428.637 63.5463 428.737 60.9463 428.737 57.4463V43.7463C426.637 42.2463 424.337 41.1463 422.037 40.2463L428.437 31.0463L435.837 34.4463C439.237 36.0463 439.937 38.9463 439.937 41.9463V53.1463C439.937 59.3463 439.637 63.8463 438.837 67.1463C440.037 69.3463 441.737 70.8463 444.737 72.9463C445.437 72.2463 446.137 71.4463 446.837 70.5463L448.237 72.0463C445.037 74.9463 442.137 78.2463 438.737 82.2463Z" fill="white"/>
</svg>
