<?xml version="1.0" encoding="utf-8"?>
<!-- Generator: Adobe Illustrator 16.0.0, SVG Export Plug-In . SVG Version: 6.00 Build 0)  -->
<!DOCTYPE svg PUBLIC "-//W3C//DTD SVG 1.1//EN" "http://www.w3.org/Graphics/SVG/1.1/DTD/svg11.dtd">
<svg version="1.1" id="Layer_1" xmlns="http://www.w3.org/2000/svg" xmlns:xlink="http://www.w3.org/1999/xlink" x="0px" y="0px"
	 width="520.414px" height="100px" viewBox="0 0 520.414 100" enable-background="new 0 0 520.414 100" xml:space="preserve">
<g>
	<g>
		<g>
			<g>
				<g>
					<path fill="#FFFFFF" d="M25,0.115c-6.813,0-12.575,5.092-13.696,12.125L0.074,79.605h3.442l11.08-66.766
						C15.495,7.524,19.833,3.707,25,3.707h43.86l0.601-3.592H25z"/>
				</g>
				<g>
					<path fill="#FFFFFF" d="M25.746,65.309l3.221-19.685h15.118c0.375,0,0.75,0.15,0.975,0.446c0.225,0.3,0.375,0.674,0.299,1.049
						l-2.845,16.988c-0.075,0.602-0.6,1.129-1.271,1.129H25.746V65.309z M44.084,38.662c2.246,0,4.417,1.05,5.838,2.846
						c1.425,1.796,2.021,4.192,1.649,6.584L48.426,65.98c-0.601,3.6-3.667,6.213-7.108,6.213H24.625l0.524-3.371h16.093
						c2.246,0,4.192-1.721,4.567-4.041l2.842-16.985c0.225-1.425-0.15-2.846-1.046-3.967c-0.9-1.125-2.171-1.726-3.596-1.726H16.316
						l0.601-3.366h8.754h18.414V38.662z M57.559,34.92c-3.445-4.266-8.533-6.737-13.846-6.737H25.375l1.796-10.625h39.368
						l0.601-3.596H26.571c-1.271,0-2.396,0.975-2.621,2.321l-1.945,11.9h-3.217l2.245-13.322c0.375-2.471,2.467-4.267,4.788-4.267
						h41.918l0.596-3.591H25.746c-4.042,0-7.483,2.992-8.158,7.184L6.737,79.455h3.442l5.612-33.905h2.921l-9.058,54.565h3.445
						l9.055-54.565h3.367l-9.055,54.565h3.442l4.042-24.4h17.368c5.163,0,9.58-3.814,10.476-9.135l3.146-17.889
						c0.6-3.367-0.301-6.813-2.396-9.505c-2.096-2.621-5.162-4.192-8.458-4.192H17.588l0.6-3.367h21.484l0,0h4.117
						c4.337,0,8.455,2.021,11.301,5.463c2.771,3.517,3.966,8.083,3.217,12.575l-2.768,16.543c-1.2,7.412-7.338,12.797-14.521,12.797
						H26.421l-3.367,21.029h3.442l2.846-17.438h11.676c8.83,0,16.317-6.584,17.813-15.717l2.771-16.543
						C62.498,44.875,61.001,39.262,57.559,34.92"/>
				</g>
			</g>
		</g>
		<g>
			<g>
				<path fill="#FFFFFF" d="M157.405,18.603h-10.629v8.908h8.684l-0.821,3.742h-7.862v11.676h-4.338V14.861h15.718L157.405,18.603z"
					/>
				<path fill="#FFFFFF" d="M173.723,42.854h-4.342V14.861h4.342V42.854z"/>
				<path fill="#FFFFFF" d="M205.383,18.603h-8.455v24.326h-4.341V18.603h-8.459v-3.742h21.333v3.742H205.383z"/>
				<path fill="#FFFFFF" d="M239.968,42.854h-3.822L219.979,21.67h-0.15l0.15,6.588v14.596h-4.192V14.861h3.892l16.027,21.106h0.07
					l-0.07-6.509V14.861h4.184v27.993H239.968z"/>
				<path fill="#FFFFFF" d="M267.808,42.854h-14.895V14.861h15.717l-0.822,3.742h-10.633v8.458h8.764l-0.82,3.742h-7.941v8.383
					h11.455L267.808,42.854z"/>
				<path fill="#FFFFFF" d="M288.31,43.379c-2.842,0-6.426-0.825-8.824-2.546v-4.267c3.221,1.871,5.762,2.996,8.684,2.996
					c2.463,0,5.084-1.125,5.084-3.816c0-2.396-2.541-3.671-4.412-4.717c-3.514-2.021-8.756-4.341-8.756-9.28
					c0-4.267,3.893-7.337,8.525-7.337c2.32,0,4.801,0.525,6.742,1.871v3.966c-2.699-1.646-5.092-2.096-6.742-2.096
					c-2.686,0-4.113,1.646-4.113,3.446c0,2.467,3.371,4.192,5.393,5.313c3.521,1.946,7.936,3.892,7.936,8.609
					C297.753,40.908,293.181,43.379,288.31,43.379z"/>
				<path fill="#FFFFFF" d="M316.763,43.379c-2.844,0-6.441-0.825-8.834-2.546v-4.267c3.213,1.871,5.764,2.996,8.676,2.996
					c2.479,0,5.1-1.125,5.1-3.816c0-2.396-2.549-3.671-4.42-4.717c-3.521-2.021-8.764-4.341-8.764-9.28
					c0-4.267,3.898-7.337,8.541-7.337c2.32,0,4.785,0.525,6.734,1.871v3.966c-2.691-1.646-5.092-2.096-6.734-2.096
					c-2.699,0-4.119,1.646-4.119,3.446c0,2.467,3.371,4.192,5.391,5.313c3.514,1.946,7.936,3.892,7.936,8.609
					C326.267,40.908,321.703,43.379,316.763,43.379z"/>
			</g>
			<g>
				<path fill="#FFFFFF" d="M187.345,85.289h-15.268V57.297h4.343v24.33h11.75L187.345,85.289z"/>
				<path fill="#FFFFFF" d="M222.148,85.289h-4.341l-2.392-6.283h-11.68l-2.468,6.283h-4.342l10.776-27.992h3.596L222.148,85.289z
					 M213.992,75.414l-2.618-6.891l-1.799-5.385h-0.071l-1.8,5.385l-2.617,6.891H213.992z"/>
				<path fill="#FFFFFF" d="M250.142,57.297l-9.574,16.246v11.746h-4.344V73.543l-9.583-16.246h4.644l7.033,12.127h0.068
					l7.043-12.127H250.142z"/>
				<path fill="#FFFFFF" d="M272.523,85.818c-9.885,0-15.047-7.113-15.047-14.375c0-7.256,5.092-14.518,15.496-14.518
					c3.07,0,6.063,0.828,8.754,2.02v4.113c-2.318-1.264-5.982-2.393-8.754-2.393c-7.334,0-10.996,5.24-10.996,10.633
					c0,5.605,3.662,10.705,10.996,10.705c2.021,0,4.041-0.602,5.613-1.43v-5.463h-6.805v-3.74h10.996v10.773
					C279.636,84.848,275.593,85.818,272.523,85.818z"/>
				<path fill="#FFFFFF" d="M315.712,85.289h-5.014l-7.041-11.824h-4.342v11.824h-4.264V57.297h9.584
					c5.764,0,8.525,4.199,8.525,8.084c0,2.92-1.721,6.291-5.084,7.482L315.712,85.289z M304.257,61.039h-4.941v8.762h4.941
					c2.922,0,4.564-1.941,4.564-4.34C308.9,62.918,307.257,61.039,304.257,61.039z"/>
				<path fill="#FFFFFF" d="M353.96,71.373c0,7.254-5.385,14.445-14.598,14.445c-9.275,0-14.596-7.264-14.596-14.445
					c0-7.264,5.318-14.447,14.596-14.447C348.646,56.854,353.96,64.109,353.96,71.373z M329.259,71.373
					c0,6.291,4.412,10.633,10.104,10.633s10.104-4.342,10.104-10.633c0-6.293-4.412-10.705-10.104-10.705
					S329.259,65.08,329.259,71.373z"/>
				<path fill="#FFFFFF" d="M387.337,75.643c0,6.732-5.084,10.176-10.697,10.176s-10.705-3.441-10.705-10.176V57.297h4.342v17.889
					c0,4.34,2.621,6.891,6.434,6.891c3.672,0,6.441-2.471,6.441-6.891V57.297h4.344v18.346H387.337L387.337,75.643z"/>
				<path fill="#FFFFFF" d="M424.613,85.289h-3.814l-16.166-21.18h-0.15l0.15,6.592v14.588h-4.191V57.297h3.893l16.018,21.109h0.078
					l-0.078-6.506V57.297h4.191v27.992H424.613z"/>
				<path fill="#FFFFFF" d="M447.822,85.289h-10.105V57.297h9.885c9.049,0,13.617,6.963,13.617,14.004
					C461.218,78.256,456.806,85.289,447.822,85.289z M447.521,61.039h-5.461v20.588h5.461c6.363,0,9.506-5.24,9.506-10.404
					C456.947,66.059,453.806,61.039,447.521,61.039z"/>
				<path fill="#FFFFFF" d="M147,61.039h4.942c2.996,0,4.566,2.021,4.566,4.5c0,2.391-1.649,4.482-4.566,4.482h-1.347v3.742h1.421
					c5.838,0,8.76-4.113,8.76-8.227c0-3.971-2.771-8.162-8.534-8.162h-9.805v27.912H147V61.039L147,61.039z"/>
			</g>
		</g>
	</g>
</g>
</svg>
