<svg width="221" height="37" viewBox="0 0 221 37" fill="none" xmlns="http://www.w3.org/2000/svg">
<path d="M98.063 25.982C97.5913 26.4561 96.9874 26.8628 96.255 27.1994C95.5215 27.5361 94.7584 27.7056 93.9635 27.7056C93.1686 27.7056 92.4846 27.4626 91.9881 26.9754C91.4904 26.4881 91.2427 25.7081 91.2427 24.6341V24.4468C90.0504 25.5457 88.9135 26.3637 87.8332 26.9007C86.7529 27.4377 85.6903 27.7056 84.6466 27.7056C83.4035 27.7056 82.4223 27.3192 81.7029 26.5439C80.9823 25.7698 80.6226 24.7965 80.6226 23.6217C80.6226 22.1481 81.237 20.8998 82.4671 19.8756C83.6972 18.8513 85.6408 17.865 88.299 16.9167L89.9761 16.3547C90.1495 16.305 90.3429 16.2492 90.554 16.1864C90.7651 16.1248 90.9951 16.043 91.2439 15.9434V13.0959C91.2439 10.7984 90.2379 9.64971 88.2247 9.64971C87.2553 9.64971 86.4415 9.94964 85.7835 10.5483C85.1254 11.1482 84.6713 12.0349 84.4237 13.2085C84.2751 13.9328 84.1382 14.426 84.0132 14.688C83.8882 14.95 83.6276 15.0815 83.2301 15.0815C82.907 15.0815 82.6652 14.9571 82.5036 14.7069C82.3421 14.458 82.2984 14.145 82.3727 13.7704C82.7454 12.1475 83.5521 10.9111 84.7952 10.0623C86.037 9.21346 87.5277 8.78906 89.2673 8.78906C91.1802 8.78906 92.6214 9.29526 93.5909 10.3065C94.5603 11.3177 95.0438 12.7971 95.0438 14.7461V24.7479C95.0438 25.2979 95.1311 25.6785 95.3045 25.8907C95.4778 26.1029 95.7385 26.2096 96.0876 26.2096C96.3352 26.2096 96.6147 26.1218 96.9261 25.9476C97.2363 25.7733 97.491 25.5979 97.6903 25.4236L98.063 25.9855V25.982ZM85.0192 24.6898C85.5653 25.1272 86.2611 25.3454 87.1067 25.3454C87.8025 25.3454 88.5161 25.2019 89.2496 24.915C89.982 24.6281 90.6472 24.2346 91.2439 23.7355V16.6558C89.4548 17.2557 87.8344 18.1235 86.3802 19.2591C84.9272 20.396 84.1996 21.5625 84.1996 22.7622C84.1996 23.611 84.4732 24.2547 85.0192 24.691V24.6898Z" fill="white"/>
<path d="M0 0.146973C2.46133 0.270262 4.73397 0.90686 6.81791 2.05795C8.90185 3.21023 10.5659 4.83314 11.809 6.92787C13.052 9.02259 13.6736 11.4789 13.6736 14.2968C13.6736 17.1146 13.052 19.5282 11.809 21.6099C10.5659 23.6928 8.90185 25.3098 6.81791 26.4609C4.73397 27.612 2.46133 28.2474 0 28.3707V27.6357C1.80325 27.3654 3.4119 26.6565 4.82596 25.5042C6.23884 24.3531 7.34862 22.8096 8.15295 20.8737C8.95728 18.9391 9.35944 16.7459 9.35944 14.2956C9.35944 11.8452 8.95728 9.57976 8.15295 7.64389C7.34862 5.7092 6.23884 4.15861 4.82596 2.99566C3.4119 1.83153 1.80325 1.12736 0 0.881965V0.146973Z" fill="white"/>
<path d="M34.3868 26.5331V27.1946H27.0017V26.5331H27.5866C28.3662 26.5331 28.7565 26.1787 28.7565 25.4674V15.104C28.7565 13.7324 28.5195 12.6596 28.0442 11.889C27.5689 11.1185 26.7104 10.732 25.4673 10.732C24.0532 10.732 22.3597 11.5535 20.3854 13.1942V25.4686C20.3854 26.1799 20.8241 26.5343 21.7016 26.5343H22.2134V27.1958H14.9014V26.5343H15.4498C16.2541 26.5343 16.6563 26.1799 16.6563 25.4686V12.2743H14.9014V11.8333C16.7294 11.1718 18.3982 10.1677 19.9101 8.81982H20.3854V12.2008C21.4575 11.2216 22.5425 10.4309 23.6393 9.83103C24.7361 9.23118 25.9909 8.93007 27.405 8.93007C29.2082 8.93007 30.5185 9.46946 31.3358 10.5471C32.1519 11.6258 32.56 13.1077 32.56 14.9938V25.4674C32.56 26.1787 32.9622 26.5331 33.7665 26.5331H34.3868Z" fill="white"/>
<path d="M45.2274 25.6881C46.3974 25.6881 47.4694 25.3703 48.4447 24.7326C49.4189 24.096 50.2114 23.2507 50.8212 22.1968L51.3696 22.5643C50.6136 24.1576 49.5899 25.4 48.2985 26.2938C47.0059 27.1889 45.4586 27.6346 43.6553 27.6346C41.9736 27.6346 40.4616 27.2422 39.1219 26.4586C37.7809 25.675 36.7395 24.5725 35.9965 23.1511C35.2524 21.7309 34.8809 20.114 34.8809 18.3002C34.8809 16.4864 35.2583 14.8635 36.0142 13.4303C36.769 11.997 37.8116 10.8827 39.1395 10.0861C40.4675 9.29062 41.9724 8.89111 43.6553 8.89111C45.1909 8.89111 46.5129 9.22186 47.6215 9.88335C48.7301 10.5448 49.571 11.4209 50.1442 12.5115C50.7162 13.6022 51.004 14.7841 51.004 16.0585H38.9391C38.8412 17.4799 38.9697 18.9249 39.3223 20.3949C39.675 21.8649 40.3331 23.1144 41.2966 24.1434C42.259 25.1724 43.5692 25.6869 45.2274 25.6869V25.6881ZM47.2017 15.2156C47.2748 14.7995 47.3114 14.3834 47.3114 13.9661C47.3114 12.7166 47 11.6687 46.3785 10.8234C45.757 9.97819 44.8489 9.55616 43.6553 9.55616C42.3392 9.55616 41.273 10.1015 40.4569 11.1909C39.6396 12.2816 39.1584 13.6223 39.0122 15.2156H47.2017Z" fill="white"/>
<path d="M71.571 7.97455C71.571 13.046 67.9386 15.5817 60.676 15.5817H57.7878V24.9161C57.7878 25.9949 58.4093 26.5331 59.6523 26.5331H60.1276V27.1946H51.3166V26.5331H52.0844C53.1812 26.5331 53.7296 25.9949 53.7296 24.9161V2.9031C53.7296 1.8504 53.1812 1.32287 52.0844 1.32287H51.1338V0.661377H61.9556C65.1965 0.661377 67.6095 1.24344 69.1946 2.40758C70.7785 3.57171 71.571 5.42697 71.571 7.97455ZM57.7878 1.32287V14.9202H60.2007C62.5642 14.9202 64.3498 14.3014 65.5562 13.0638C66.7627 11.8273 67.3666 10.1179 67.3666 7.93661C67.3666 5.75535 66.8182 4.10873 65.7214 2.99438C64.6245 1.88004 63.0159 1.32168 60.8954 1.32168H57.7878V1.32287Z" fill="white"/>
<path d="M79.7429 26.5332V27.1947H72.3211V26.5332H72.9792C73.7835 26.5332 74.1857 26.1788 74.1857 25.4675V3.82196H72.0652V3.38096C73.0158 3.03836 73.9781 2.56062 74.9534 1.94773C75.9276 1.33603 76.7567 0.686388 77.4396 0H77.9148V25.4675C77.9148 26.1788 78.3536 26.5332 79.231 26.5332H79.7429Z" fill="white"/>
<path d="M109.88 9.40792H115.474V10.0694H114.523C114.085 10.0694 113.756 10.1737 113.536 10.3812C113.317 10.5898 113.085 11.0119 112.842 11.6496L106.626 28.0767C105.749 30.4038 104.932 32.1678 104.177 33.3687C103.421 34.5684 102.745 35.3531 102.147 35.7206C101.549 36.0881 100.91 36.2719 100.228 36.2719C99.4724 36.2719 98.8815 36.1118 98.4546 35.7941C98.0277 35.4752 97.8154 35.071 97.8154 34.5814C97.8154 34.2139 97.931 33.9069 98.1633 33.6627C98.3945 33.4173 98.6928 33.2952 99.0584 33.2952C99.3014 33.2952 99.4913 33.3438 99.6245 33.4422C99.7578 33.5394 99.8993 33.6745 100.046 33.8464C100.24 34.042 100.405 34.1831 100.539 34.2684C100.672 34.3538 100.873 34.3965 101.142 34.3965C101.678 34.3965 102.166 34.1997 102.605 33.8085C103.044 33.4161 103.482 32.7854 103.921 31.9165C104.36 31.0463 104.883 29.8158 105.493 28.2225L98.4003 11.6117C98.1315 11.0486 97.8637 10.6503 97.596 10.4179C97.3271 10.1856 96.9745 10.0682 96.5358 10.0682H95.5852V9.40674H103.665V10.0682H103.117C102.555 10.0682 102.276 10.265 102.276 10.6562C102.276 10.8281 102.361 11.134 102.532 11.575L107.394 23.2246L111.708 11.6117C111.83 11.2442 111.891 10.9633 111.891 10.7665C111.891 10.3018 111.586 10.0682 110.977 10.0682H109.88V9.40674V9.40792Z" fill="white"/>
<path d="M145.458 9.86778C146.055 10.419 146.353 11.0248 146.353 11.6863C146.353 12.1273 146.219 12.4948 145.951 12.7888C145.682 13.0828 145.305 13.2298 144.818 13.2298C144.331 13.2298 143.995 13.1373 143.739 12.9536C143.483 12.7698 143.221 12.4936 142.952 12.1273C142.683 11.7598 142.427 11.4907 142.184 11.3188C141.94 11.1481 141.586 11.0615 141.124 11.0615C140.076 11.0615 138.906 11.9317 137.614 13.6708V25.4674C137.614 26.1787 138.053 26.5331 138.93 26.5331H139.808V27.1946H132.203V26.5331H132.679C133.483 26.5331 133.885 26.1787 133.885 25.4674V12.2743H132.13V11.8333C133.958 11.1718 135.627 10.1677 137.139 8.81982H137.614V12.5315C139.539 10.2045 141.319 9.04032 142.952 9.04032C144.024 9.04032 144.859 9.31535 145.457 9.8666H145.458V9.86778Z" fill="white"/>
<path d="M146.483 18.191C146.483 15.2759 147.306 12.9725 148.951 11.2821C150.597 9.59158 152.857 8.74634 155.733 8.74634C158.608 8.74634 160.869 9.59158 162.514 11.2821C164.159 12.9725 164.981 15.2759 164.981 18.191C164.981 21.1061 164.159 23.3668 162.514 25.0454C160.869 26.724 158.608 27.5621 155.733 27.5621C152.857 27.5621 150.595 26.7228 148.951 25.0454C147.306 23.3679 146.483 21.0823 146.483 18.191ZM150.797 18.191C150.797 20.8619 151.218 22.9684 152.059 24.5119C152.9 26.0554 154.124 26.8271 155.734 26.8271C157.344 26.8271 158.573 26.0554 159.426 24.5119C160.279 22.9684 160.706 20.8619 160.706 18.191C160.706 15.5201 160.279 13.3709 159.426 11.8143C158.573 10.259 157.342 9.48133 155.734 9.48133C154.125 9.48133 152.9 10.2531 152.059 11.7966C151.218 13.34 150.797 15.4715 150.797 18.191Z" fill="white"/>
<path d="M185.915 26.5331V27.1946H179.992V24.1077C178.919 25.1615 177.854 25.9997 176.794 26.6256C175.734 27.2503 174.448 27.5621 172.937 27.5621C171.255 27.5621 169.933 27.0049 168.97 25.8906C168.006 24.7763 167.525 23.3241 167.525 21.5352V12.2743H165.77V11.8333C167.671 11.1232 169.365 10.1191 170.852 8.81982H171.327V21.4249C171.327 22.6993 171.656 23.7461 172.315 24.5664C172.973 25.388 173.862 25.797 174.983 25.797C175.861 25.797 176.684 25.5527 177.451 25.062C178.218 24.5724 179.065 23.9227 179.991 23.1142V12.2743H178.236V11.8333C180.064 11.1718 181.733 10.1677 183.245 8.81982H183.72V25.4674C183.72 26.1787 184.159 26.5331 185.036 26.5331H185.915Z" fill="white"/>
<path d="M206.628 26.5331V27.1946H199.243V26.5331H199.828C200.608 26.5331 200.998 26.1787 200.998 25.4674V15.104C200.998 13.7324 200.761 12.6596 200.286 11.889C199.81 11.1185 198.952 10.732 197.709 10.732C196.295 10.732 194.601 11.5535 192.627 13.1942V25.4686C192.627 26.1799 193.066 26.5343 193.943 26.5343H194.455V27.1958H187.143V26.5343H187.691C188.496 26.5343 188.898 26.1799 188.898 25.4686V12.2743H187.143V11.8333C188.971 11.1718 190.64 10.1677 192.152 8.81982H192.627V12.2008C193.699 11.2216 194.784 10.4309 195.881 9.83103C196.978 9.23118 198.232 8.93007 199.646 8.93007C201.45 8.93007 202.76 9.46946 203.577 10.5471C204.393 11.6258 204.801 13.1077 204.801 14.9938V25.4674C204.801 26.1787 205.204 26.5331 206.008 26.5331H206.628Z" fill="white"/>
<path d="M220.98 0.881929C219.176 1.12732 217.567 1.83149 216.154 2.99562C214.74 4.15976 213.631 5.70917 212.827 7.64386C212.023 9.57973 211.621 11.7966 211.621 14.2955C211.621 16.7945 212.023 18.939 212.827 20.8737C213.631 22.8096 214.74 24.3531 216.154 25.5042C217.567 26.6564 219.176 27.3654 220.98 27.6356V28.3706C218.517 28.2473 216.245 27.6107 214.161 26.4597C212.077 25.3086 210.414 23.6916 209.171 21.6087C207.928 19.527 207.306 17.0885 207.306 14.2955C207.306 11.5026 207.928 9.02137 209.171 6.92665C210.414 4.83192 212.077 3.20901 214.161 2.05673C216.245 0.905639 218.517 0.269041 220.98 0.145752V0.881929Z" fill="white"/>
<path d="M131.186 9.70905H125.79C124.716 9.16373 123.44 8.86499 122.053 8.86499C118.144 8.86499 115.039 11.3248 115.039 15.0342C115.039 17.7382 116.431 19.5532 118.523 20.4577C116.716 21.0742 115.002 22.3248 115.002 24.0675C115.002 25.8101 116.198 26.7182 117.935 27.0217C115.664 27.2955 113.383 29.2503 113.383 31.5217C113.383 34.1653 115.769 36.458 121.213 36.458C127.46 36.458 130.801 32.6349 130.801 29.4045C130.801 26.5036 128.994 23.7747 124.282 23.8837C118.948 23.994 117.414 23.553 117.414 22.6354C117.414 21.885 118.272 21.2034 119.382 20.7671C120.203 21.0078 121.104 21.1299 122.054 21.1299C126.035 21.1299 129.104 18.4863 129.104 15.0342C129.104 13.4871 128.57 12.157 127.657 11.1316L130.857 10.8483L131.186 9.71023V9.70905ZM125.121 27.1497C128.117 27.1497 129.631 28.2261 129.631 30.1726C129.631 32.1192 127.568 34.9501 122.089 34.9501C118.327 34.9501 116.488 32.8044 116.488 30.9681C116.488 29.3073 117.788 27.7353 119.61 27.1497H125.121ZM122.053 20.4293C120.116 20.4293 118.728 18.6665 118.728 15.0318C118.728 11.3972 120.116 9.56086 122.053 9.56086C123.989 9.56086 125.45 11.3972 125.45 15.0318C125.45 18.6665 124.026 20.4293 122.053 20.4293Z" fill="white"/>
</svg>
