<?xml version="1.0" encoding="UTF-8"?>
<svg id="Horizontal-Color" xmlns="http://www.w3.org/2000/svg" xmlns:xlink="http://www.w3.org/1999/xlink" viewBox="0 0 535.34 161">
  <defs>
    <style>
      .cls-1 {
        fill: #fff;
      }

      .cls-2 {
        clip-path: url(#clippath-2);
      }

      .cls-3 {
        fill: #00954c;
      }

      .cls-4 {
        clip-path: url(#clippath-1);
      }

      .cls-5 {
        clip-path: url(#clippath-4);
      }

      .cls-6 {
        clip-path: url(#clippath);
      }

      .cls-7 {
        fill: none;
      }

      .cls-8 {
        clip-path: url(#clippath-3);
      }

      .cls-9 {
        clip-path: url(#clippath-5);
      }

      .cls-10 {
        fill: url(#linear-gradient);
      }
    </style>
    <clipPath id="clippath">
      <path class="cls-7" d="M127.58,130.68l-1.49,1.19c-17.4,10.54-86.5-13.76-101.85-33.72,.94,3.49,2.15,6.87,3.62,10.12,6.08,7.05,18.1,14.03,31.49,19.6-.37,.54-.68,1.12-.92,1.75-.24,.64-.4,1.29-.47,1.94-11.08-4.76-20.93-10.54-26.32-16.12,1.66,2.73,3.5,5.34,5.52,7.8,12.01,11.53,42.96,22.84,58.75,21.21-4.6,.55-5.43,.65-7.9,.7-3.81,.03-5.11,.01-9.47-.44-12.84-1.92-24.45-7.48-30.49-11.67l-.63-.45c-2.87-2.18-3.17-2.4-5.01-4.01-2.06-1.93-3.04-2.85-4.08-3.94,12.36,14.28,30.61,23.32,50.97,23.32,15.54,0,29.84-5.28,41.24-14.12-1.03-.86-2.05-1.92-2.98-3.17Zm-16.68,9.72l-2.91,1.09c-8.07,2.24-22.54-.22-37.02-5.01-1.43,1.38-3.71,1.86-5.84,1.05-2.87-1.09-4.39-4.08-3.41-6.68,.98-2.6,4.1-3.84,6.97-2.75,2.11,.8,3.49,2.63,3.68,4.58,18.17,5.97,36.24,8.76,43.81,5.32-1.58,.73-3.66,1.75-5.28,2.39Zm34.25-53.51c7.03-1.6,7.32-4.98,7.42-6.26-.2,3.08-.54,7.21-1.08,10.25l-.66,3.14c-1.53,3.91-5.82,5.95-11.93,6.56,1.57,3.11,2.78,5.97,3.69,8.58,.63-.24,1.22-.51,1.72-.82,1.25-.76,1.98-1.54,2.69-2.86-.99,2.04-2.29,4.75-3.44,6.78,.67,2.43,1.05,4.61,1.2,6.59,7.54-10.89,11.96-24.1,11.96-38.34,0-37.25-30.18-67.44-67.4-67.44-6.97,0-13.69,1.06-20.02,3.03-3.37,4.91,8.84,14.03,24.65,20.9,25.56,11.1,50.37,12.67,45.77,2.89-.2-.42-.54-.96-.8-1.35l2.19,3.03c1.29,2.05,2.95,4.83,4.11,6.95l.57,1.14c5.21,13.16-27.65,9.24-56.91-3.41-20.49-8.85-32.94-19.05-31.74-25-3.33,1.81-6.49,3.9-9.45,6.22-.42,8.5,19.52,21.27,42.69,30.29,2.39-2.04,5.97-2.71,9.37-1.47,4.84,1.77,7.46,6.77,5.86,11.17-1.6,4.4-6.83,6.53-11.67,4.77-3.37-1.23-5.66-4.02-6.21-7.08-16.86-6.59-32.65-15.1-40.95-23.33-3.82-3.78-5.2-6.58-5.45-8.65-2.68,2.72-5.13,5.67-7.32,8.81,3.88,20.12,85.66,50.73,111.14,44.93Zm-31.71-51.55c-4.93-1.24-9.72-2.88-14.08-4.71-2.24,1.82-5.64,2.11-8.53,.49-3.69-2.07-5.16-6.47-3.28-9.82,1.88-3.35,6.39-4.39,10.08-2.33,2.72,1.52,4.23,4.31,4.09,7.01,13.09,5.67,26.44,6.88,25.19,2.09-.05-.17-.15-.56-.64-1.3,1.81,1.33,4.47,2.87,5.93,4.58,4.05,6.67-6.64,7.03-18.76,3.99Zm-4.54,33.31c.55-1.49,.75-3.04,.66-4.56,7.01,1.9,13.88,3.28,20.2,3.93,14.32,1.48,21.89-1.31,20.24-7.48,.63,2.54,1.59,5.9,1.86,8.5,.34,10.78-20.76,9.55-44.66,2.69,.71-.92,1.29-1.95,1.7-3.08ZM22.06,84.97c-.1-1.47-.15-2.95-.15-4.45,0-2.25,.11-4.47,.33-6.67,2.93,5.27,9.99,11.03,19.33,16.59-.12,3.39,1.92,6.83,5.43,8.56,4.63,2.28,10.05,.71,12.11-3.49,2.07-4.2,0-9.45-4.63-11.74-3.16-1.55-6.69-1.31-9.26,.33-10.82-6.18-18.88-12.79-21.51-19.07,.93-3.97,2.21-7.8,3.81-11.46,.08,.2,.16,.4,.25,.6,7.19,15.91,65.53,42.39,99.45,46.15-1.84,3.39-3.03,6.66-3.68,9.74-16.96-1.88-40.25-8.49-60.17-17.03-.11,1.37-.48,2.74-1.11,4.03-.54,1.09-1.24,2.08-2.07,2.93,20.8,9.31,45.5,16.61,62.77,17.8,.22,3.37,1.06,6.39,2.27,8.96-27.39,2.31-90.65-22.35-103.16-41.78Z"/>
    </clipPath>
    <linearGradient id="linear-gradient" x1="-855.32" y1="658.11" x2="-646.71" y2="569.88" gradientTransform="translate(731.19 -501.99) scale(.87 .95)" gradientUnits="userSpaceOnUse">
      <stop offset=".2" stop-color="#006a30"/>
      <stop offset=".23" stop-color="#007336"/>
      <stop offset=".34" stop-color="#008c46"/>
      <stop offset=".4" stop-color="#00954c"/>
      <stop offset=".49" stop-color="#3b9d40"/>
      <stop offset=".59" stop-color="#70a436"/>
      <stop offset=".68" stop-color="#9bab2e"/>
      <stop offset=".77" stop-color="#bdaf28"/>
      <stop offset=".86" stop-color="#d5b323"/>
      <stop offset=".93" stop-color="#e3b520"/>
      <stop offset="1" stop-color="#e9b620"/>
    </linearGradient>
    <clipPath id="clippath-1">
      <path class="cls-7" d="M68.47,130.2c-1.81-.69-3.76,.02-4.34,1.57-.59,1.54,.41,3.36,2.22,4.04,1.81,.68,3.75-.02,4.34-1.56,.58-1.55-.41-3.36-2.22-4.05Z"/>
    </clipPath>
    <clipPath id="clippath-2">
      <path class="cls-7" d="M101.61,65.98c.95-2.61-.75-5.65-3.81-6.77-3.06-1.12-6.32,.1-7.27,2.72-.95,2.61,.76,5.65,3.81,6.77,3.06,1.12,6.32-.1,7.27-2.72Z"/>
    </clipPath>
    <clipPath id="clippath-3">
      <path class="cls-7" d="M96.89,21.78c-2.33-1.3-5.13-.75-6.25,1.24-1.12,1.99-.13,4.68,2.2,5.98,2.33,1.3,5.13,.75,6.25-1.25,1.11-1.99,.12-4.68-2.2-5.98"/>
    </clipPath>
    <clipPath id="clippath-4">
      <path class="cls-7" d="M55.29,93.62c1.23-2.5-.15-5.7-3.07-7.13-2.92-1.44-6.29-.58-7.52,1.92-1.23,2.5,.15,5.7,3.07,7.13,2.92,1.44,6.3,.57,7.52-1.92"/>
    </clipPath>
    <clipPath id="clippath-5">
      <path class="cls-7" d="M88.63,153.44c-40.25,0-72.87-32.65-72.87-72.92S48.39,7.6,88.63,7.6c18.7,0,35.75,7.05,48.65,18.63C123.2,11.83,103.56,2.88,81.82,2.88,38.97,2.88,4.23,37.64,4.23,80.52s34.74,77.64,77.59,77.64c21.74,0,41.38-8.95,55.47-23.36-12.9,11.59-29.95,18.64-48.65,18.64Z"/>
    </clipPath>
  </defs>
  <g>
    <path class="cls-1" d="M201.83,108.3c-2.96,0-5.7-.43-8.22-1.28-2.52-.86-4.7-2.07-6.55-3.64-1.85-1.57-3.26-3.4-4.23-5.48-.37-.74-.38-1.42-.03-2.05,.35-.62,.94-1.05,1.77-1.28,.65-.18,1.28-.11,1.91,.21,.62,.32,1.1,.81,1.42,1.46,.69,1.34,1.71,2.54,3.05,3.61,1.34,1.06,2.94,1.88,4.79,2.46,1.85,.58,3.88,.87,6.1,.87,2.45,0,4.62-.4,6.52-1.21,1.9-.81,3.39-1.99,4.47-3.54,1.09-1.55,1.63-3.43,1.63-5.65,0-2.82-1.04-5.25-3.12-7.28-2.08-2.03-5.34-3.33-9.78-3.88-5.41-.65-9.64-2.32-12.69-5.03-3.05-2.7-4.58-6.02-4.58-9.95,0-2.82,.75-5.27,2.25-7.35,1.5-2.08,3.57-3.69,6.21-4.82,2.64-1.13,5.66-1.7,9.09-1.7,2.54,0,4.85,.41,6.94,1.21,2.08,.81,3.89,1.87,5.44,3.19,1.55,1.32,2.81,2.76,3.78,4.33,.46,.74,.61,1.46,.45,2.15-.16,.69-.57,1.23-1.21,1.6-.69,.32-1.4,.37-2.12,.14-.72-.23-1.26-.67-1.63-1.32-.69-1.06-1.56-2.07-2.6-3.02-1.04-.95-2.3-1.7-3.78-2.25-1.48-.55-3.26-.85-5.34-.9-3.65,0-6.59,.77-8.81,2.32-2.22,1.55-3.33,3.8-3.33,6.76,0,1.57,.42,3.02,1.25,4.33,.83,1.32,2.21,2.45,4.13,3.4,1.92,.95,4.5,1.65,7.73,2.12,5.78,.83,10.07,2.6,12.86,5.31,2.8,2.7,4.2,6.23,4.2,10.58,0,2.5-.45,4.72-1.35,6.66-.9,1.94-2.17,3.57-3.81,4.89-1.64,1.32-3.56,2.32-5.76,3.02-2.2,.69-4.54,1.04-7.04,1.04Z"/>
    <path class="cls-1" d="M224.93,58.36c-.74,0-1.34-.23-1.8-.69-.46-.46-.69-1.04-.69-1.73,0-.74,.23-1.34,.69-1.8s1.06-.69,1.8-.69h38.35c.74,0,1.34,.23,1.8,.69,.46,.46,.69,1.06,.69,1.8,0,.69-.23,1.27-.69,1.73-.46,.46-1.06,.69-1.8,.69h-38.35Zm19.14,49.24c-.74,0-1.38-.27-1.91-.8-.53-.53-.8-1.17-.8-1.91V53.44h5.41v51.46c0,.74-.25,1.38-.76,1.91-.51,.53-1.16,.8-1.94,.8Z"/>
    <path class="cls-1" d="M295.32,108.3c-4.02,0-7.72-.69-11.1-2.08-3.37-1.39-6.3-3.33-8.77-5.83-2.47-2.5-4.39-5.43-5.76-8.81-1.36-3.37-2.05-7.07-2.05-11.1s.68-7.65,2.05-11.03c1.36-3.37,3.28-6.31,5.76-8.81,2.47-2.5,5.4-4.44,8.77-5.83,3.37-1.39,7.07-2.08,11.1-2.08s7.65,.69,11.03,2.08c3.37,1.39,6.31,3.33,8.81,5.83,2.5,2.5,4.43,5.43,5.79,8.81,1.36,3.38,2.05,7.05,2.05,11.03s-.68,7.72-2.05,11.1c-1.36,3.37-3.29,6.31-5.79,8.81-2.5,2.5-5.43,4.44-8.81,5.83-3.37,1.39-7.05,2.08-11.03,2.08Zm0-5.13c3.19,0,6.15-.57,8.88-1.7,2.73-1.13,5.1-2.73,7.11-4.79,2.01-2.06,3.57-4.46,4.68-7.21,1.11-2.75,1.66-5.74,1.66-8.98s-.55-6.16-1.66-8.91c-1.11-2.75-2.67-5.15-4.68-7.21-2.01-2.06-4.38-3.65-7.11-4.79-2.73-1.13-5.69-1.7-8.88-1.7s-6.22,.57-8.95,1.7c-2.73,1.13-5.1,2.73-7.11,4.79-2.01,2.06-3.57,4.46-4.68,7.21-1.11,2.75-1.66,5.72-1.66,8.91s.55,6.23,1.66,8.98c1.11,2.75,2.67,5.16,4.68,7.21,2.01,2.06,4.38,3.65,7.11,4.79,2.73,1.13,5.71,1.7,8.95,1.7Z"/>
    <path class="cls-1" d="M336.86,107.6c-.79,0-1.43-.25-1.94-.76-.51-.51-.76-1.16-.76-1.94V56.14c0-.79,.25-1.43,.76-1.94,.51-.51,1.15-.76,1.94-.76s1.43,.25,1.94,.76c.51,.51,.76,1.16,.76,1.94v48.75c0,.79-.25,1.43-.76,1.94-.51,.51-1.16,.76-1.94,.76Z"/>
    <path class="cls-1" d="M377.78,108.3c-3.74,0-7.25-.72-10.51-2.15-3.26-1.43-6.13-3.43-8.6-6-2.47-2.57-4.4-5.52-5.79-8.88-1.39-3.35-2.08-6.95-2.08-10.78s.68-7.36,2.05-10.72c1.36-3.35,3.28-6.3,5.76-8.84,2.47-2.54,5.34-4.54,8.6-6,3.26-1.46,6.78-2.18,10.58-2.18,3.33,0,6.36,.49,9.09,1.46,2.73,.97,5.36,2.52,7.91,4.65,.42,.32,.66,.71,.73,1.14,.07,.44,.01,.86-.17,1.25-.19,.39-.46,.68-.83,.87-.09,.37-.32,.65-.69,.83-.37,.19-.8,.25-1.28,.21-.49-.05-.96-.25-1.42-.62-1.8-1.57-3.77-2.74-5.89-3.5-2.13-.76-4.6-1.14-7.42-1.14-3.01,0-5.81,.6-8.43,1.8-2.61,1.2-4.91,2.84-6.9,4.92-1.99,2.08-3.55,4.48-4.68,7.21-1.13,2.73-1.7,5.62-1.7,8.67s.57,6.08,1.7,8.81c1.13,2.73,2.69,5.13,4.68,7.21,1.99,2.08,4.29,3.71,6.9,4.89,2.61,1.18,5.42,1.77,8.43,1.77,2.54,0,4.95-.42,7.21-1.25,2.26-.83,4.41-2.03,6.45-3.61,.55-.46,1.14-.65,1.77-.55,.62,.09,1.17,.37,1.63,.83,.46,.46,.69,1.06,.69,1.8,0,.37-.06,.71-.17,1.01-.12,.3-.31,.61-.59,.94-2.36,2.17-4.99,3.71-7.91,4.61-2.91,.9-5.94,1.35-9.09,1.35Z"/>
    <path class="cls-1" d="M430.07,107.6c-.88,0-1.61-.24-2.18-.73-.58-.49-.87-1.14-.87-1.98V56.14c0-.79,.25-1.43,.76-1.94,.51-.51,1.15-.76,1.94-.76h16.85c2.77,0,5.28,.59,7.52,1.77,2.24,1.18,4.02,2.79,5.34,4.82,1.32,2.04,1.98,4.39,1.98,7.07,0,2.5-.67,4.72-2.01,6.66-1.34,1.94-3.1,3.42-5.27,4.44,3.1,.83,5.59,2.39,7.49,4.68,1.9,2.29,2.84,5.19,2.84,8.7,0,3.14-.72,5.92-2.15,8.32-1.43,2.41-3.41,4.29-5.93,5.65-2.52,1.36-5.4,2.05-8.63,2.05h-17.68Zm2.36-31.56h14.15c2.77,0,5.06-.79,6.87-2.36,1.8-1.57,2.71-3.77,2.71-6.59s-.9-4.88-2.71-6.31c-1.8-1.43-4.09-2.15-6.87-2.15h-14.15v17.41Zm0,26.35h15.33c2.22,0,4.18-.44,5.89-1.32,1.71-.88,3.05-2.13,4.02-3.75,.97-1.62,1.46-3.54,1.46-5.76,0-2.08-.49-3.89-1.46-5.44-.97-1.55-2.31-2.75-4.02-3.61-1.71-.85-3.68-1.28-5.89-1.28h-15.33v21.15Z"/>
    <path class="cls-1" d="M478.27,62.45c-1.02,0-1.9-.37-2.63-1.11-.74-.74-1.11-1.64-1.11-2.7,0-1.16,.38-2.07,1.14-2.74,.76-.67,1.65-1.01,2.67-1.01s1.84,.34,2.6,1.01c.76,.67,1.14,1.58,1.14,2.74,0,1.06-.37,1.97-1.11,2.7s-1.64,1.11-2.71,1.11Zm.07,45.15c-.83,0-1.49-.24-1.98-.73s-.73-1.14-.73-1.98v-32.53c0-.83,.24-1.49,.73-1.98,.49-.49,1.14-.73,1.98-.73,.79,0,1.42,.24,1.91,.73,.49,.49,.73,1.14,.73,1.98v32.53c0,.83-.24,1.49-.73,1.98-.49,.49-1.12,.73-1.91,.73Z"/>
    <path class="cls-1" d="M511.83,107.95c-3.7,0-7-.83-9.92-2.5-2.91-1.66-5.2-3.95-6.87-6.87-1.66-2.91-2.5-6.22-2.5-9.92s.83-7.07,2.5-9.99c1.66-2.91,3.95-5.2,6.87-6.87,2.91-1.66,6.22-2.5,9.92-2.5s6.99,.83,9.88,2.5c2.89,1.66,5.17,3.95,6.83,6.87,1.66,2.91,2.52,6.24,2.57,9.99,0,3.7-.84,7-2.53,9.92-1.69,2.91-3.98,5.2-6.87,6.87-2.89,1.66-6.18,2.5-9.88,2.5Zm0-4.85c2.68,0,5.09-.62,7.21-1.87s3.79-2.96,4.99-5.13c1.2-2.17,1.8-4.65,1.8-7.42s-.6-5.26-1.8-7.46c-1.2-2.2-2.87-3.92-4.99-5.17-2.13-1.25-4.53-1.87-7.21-1.87s-5.09,.62-7.21,1.87c-2.13,1.25-3.8,2.97-5.03,5.17-1.23,2.2-1.84,4.68-1.84,7.46s.61,5.25,1.84,7.42c1.22,2.17,2.9,3.88,5.03,5.13,2.13,1.25,4.53,1.87,7.21,1.87Z"/>
  </g>
  <g>
    <g class="cls-6">
      <rect class="cls-10" x="4.12" y="3.57" width="153.16" height="155.16" transform="translate(-30.25 53.08) rotate(-30.96)"/>
    </g>
    <g class="cls-4">
      <rect class="cls-10" x="4.12" y="3.57" width="153.16" height="155.16" transform="translate(-30.25 53.08) rotate(-30.96)"/>
    </g>
    <g class="cls-2">
      <rect class="cls-10" x="4.12" y="3.57" width="153.16" height="155.16" transform="translate(-30.25 53.08) rotate(-30.96)"/>
    </g>
    <g class="cls-8">
      <rect class="cls-10" x="4.12" y="3.57" width="153.16" height="155.16" transform="translate(-30.25 53.08) rotate(-30.96)"/>
    </g>
    <g class="cls-5">
      <rect class="cls-10" x="4.12" y="3.57" width="153.16" height="155.16" transform="translate(-30.25 53.08) rotate(-30.96)"/>
    </g>
    <g class="cls-9">
      <rect class="cls-10" x="4.12" y="3.57" width="153.16" height="155.16" transform="translate(-30.25 53.08) rotate(-30.96)"/>
    </g>
    <g>
      <path class="cls-3" d="M138.54,137.59c7.11-2.06,23.9-5.5,46.37-.79-17.42-6.41-37.79-3.51-45.8-1.95,4.07-11.33,19.43-26.22,65.39,2.57-32.74,28.35-60.45,12.53-65.96,.17"/>
      <path class="cls-3" d="M133.53,133.27c1.24-4.26,3.3-14.34,.47-27.82,3.85,10.45,2.11,22.67,1.17,27.48,6.8-2.44,15.73-11.66-1.54-39.24-17.01,19.64-7.52,36.27-.1,39.58"/>
    </g>
  </g>
</svg>