<svg width="185" height="50" viewBox="0 0 185 50" fill="none" xmlns="http://www.w3.org/2000/svg">
<path d="M30.0102 48.05L27.7102 49.65C27.8102 47.2 27.6102 44.65 26.7102 42.3L26.6102 42H10.8102V41H15.4102C13.3102 34.9 8.11016 21.25 3.46016 10.9H0.0601562V9.9C4.76016 9.95 9.11016 9.15 10.8602 8.6C15.5602 20.9 17.6602 26.45 23.4102 41H26.2102L11.4102 2.2L13.7602 0.499998C13.7102 3.15 14.3102 6.5 15.2102 9L17.0602 13.9C17.2602 10 19.9602 8.1 23.1102 8.1C29.4102 8.1 37.0102 13.3 37.0102 26.8V41H40.0602V1.7L42.9602 1.25C41.8102 3.65 41.1102 7 41.1102 9.85V14.3C42.1102 10.5 44.1602 8.1 48.2602 8.1C55.3602 8.1 61.3602 12.5 61.3602 22.6C61.3602 33.4 53.2102 41.35 41.1102 41.95V49.2L38.3102 49.55C39.3102 47.4 40.0102 44.7 40.0602 42H27.7102L30.0102 48.05ZM18.1102 14.4C18.1102 15.6 18.3602 17.05 18.8602 18.6L27.3602 41H29.5102V26.05C29.5102 11.85 25.9102 9.25 22.4602 9.25C19.9102 9.25 18.1102 11.05 18.1102 14.4ZM44.4102 29.05L41.1102 25.75V40.95C49.6102 40.05 52.8602 31.8 52.8602 22C52.8602 13.05 50.3602 9.3 47.2102 9.3C43.1102 9.3 41.1102 14.8 41.1102 22.8V23.65L44.3102 20.45L48.6602 24.8L44.4102 29.05ZM75.1219 42.3C72.1219 41.45 68.1719 39.05 66.8719 36.8C67.4219 35 67.6219 33.35 67.6219 30.05C66.8219 30.1 65.9719 30.25 64.9219 30.4L65.5719 29H67.6219V22.35L71.4219 21.3L74.5719 16.7L79.4719 19.5C80.7219 20.2 81.3219 21.75 80.1219 23.15C78.3719 25.25 76.3719 27.1 74.3219 29H80.2219L79.5719 30.2C78.2219 30.05 75.8719 29.9 73.1719 29.9C73.0719 31.6 72.9219 33.15 72.6719 34.25C73.8219 35.5 75.4719 36.65 77.9719 37.7C78.3719 37.25 78.8219 36.75 79.3219 36.15L80.0219 36.9C79.1219 37.75 78.2719 38.65 77.3719 39.65L75.1219 42.3ZM73.2219 28.7C74.5219 27.45 75.7719 26.3 77.1219 24.95C75.9219 23.9 74.7219 23.1 73.2219 22.35V28.7ZM91.5922 8.35V27.75C91.5922 30.25 91.4422 33 91.0422 34.75C91.5922 35.8 92.2422 36.65 93.4922 37.65C93.8422 37.3 94.1922 36.9 94.5422 36.45L95.2422 37.2C93.6422 38.65 92.1922 40.3 90.4922 42.3C88.4422 41.25 86.4422 38.85 85.2422 36.8C85.7922 34.95 85.9922 33.3 85.9922 29.9V11.9L83.2922 10.6C82.9422 10.95 82.5922 11.4 82.1922 11.85L81.4922 11.1C83.0922 9.65 84.5422 8 86.2422 6L90.6922 7.95V2.65L92.1922 2.2C91.7922 4.4 91.5922 5.5 91.5922 8.35ZM104.873 42.3C102.173 41.55 98.8227 39 97.5727 36.8C98.1227 34.95 98.3227 33.3 98.3227 29.9V22.35L101.873 21.35L105.073 16.7L111.573 19.75L108.723 23.85V27.75L107.523 28.15C107.673 27 107.773 25.9 107.823 24.15C106.573 23.55 105.323 23 103.923 22.4V27.75C103.923 30.15 103.723 32.7 103.373 34.25C104.423 35.4 105.623 36.7 107.723 37.7C108.173 37.25 108.573 36.75 109.073 36.15L109.773 36.9C108.873 37.75 108.023 38.65 107.123 39.65L104.873 42.3ZM122.192 42.3C119.142 41.45 114.642 39.05 113.342 36.8C113.892 34.95 114.092 33.3 114.092 29.9V22.3L117.292 21.4L120.442 16.7L126.642 18.35C129.792 19.2 130.292 19.9 130.292 25.15V34.35C126.742 37.5 124.992 39.15 122.192 42.3ZM119.142 34.25C120.292 35.55 121.992 36.65 124.592 37.8C124.742 34.8 124.842 32 124.842 29.05C124.842 27.3 124.792 25.55 124.742 23.65C123.342 23.1 121.442 22.6 119.692 22.1V27.75C119.692 30.4 119.542 32.05 119.142 34.25ZM163.258 42.3C161.058 41.15 158.708 38.9 157.508 36.8C158.058 34.95 158.258 33.3 158.258 29.9V23.05C157.058 22.45 155.858 21.95 154.558 21.55C154.158 22 153.758 22.5 153.358 23.1V27.75C153.358 30.55 153.208 33.1 152.808 34.75C153.458 36 154.508 36.8 156.358 38.05L152.758 42.3C150.558 41.15 148.208 38.9 147.008 36.8C147.558 34.95 147.758 33.3 147.758 29.9V22.85C146.458 22.3 145.308 21.9 144.058 21.55C143.658 22.05 143.208 22.6 142.758 23.25V27.75C142.758 30.55 142.608 33.1 142.208 34.75C142.858 36 143.908 36.8 145.758 38.05L142.158 42.3C139.958 41.15 137.608 38.9 136.408 36.8C136.958 34.95 137.158 33.3 137.158 29.9V22.6L134.458 21.3C134.108 21.65 133.758 22.1 133.358 22.55L132.658 21.8C134.258 20.35 135.708 18.7 137.408 16.7L142.758 19.05V21.45C143.908 19.6 145.208 18 146.508 16.7L153.358 19.05V21.3C154.508 19.5 155.708 18 157.008 16.7L161.808 18.65C163.558 19.35 163.858 20.75 163.858 22.15V27.75C163.858 30.55 163.708 33.1 163.308 34.75C163.908 35.85 164.758 36.6 166.258 37.65C166.608 37.3 166.958 36.9 167.308 36.45L168.008 37.2C166.408 38.65 164.958 40.3 163.258 42.3ZM178.481 42.3C175.481 41.45 171.531 39.05 170.231 36.8C170.781 35 170.981 33.35 170.981 30.05C170.181 30.1 169.331 30.25 168.281 30.4L168.931 29H170.981V22.35L174.781 21.3L177.931 16.7L182.831 19.5C184.081 20.2 184.681 21.75 183.481 23.15C181.731 25.25 179.731 27.1 177.681 29H183.581L182.931 30.2C181.581 30.05 179.231 29.9 176.531 29.9C176.431 31.6 176.281 33.15 176.031 34.25C177.181 35.5 178.831 36.65 181.331 37.7C181.731 37.25 182.181 36.75 182.681 36.15L183.381 36.9C182.481 37.75 181.631 38.65 180.731 39.65L178.481 42.3ZM176.581 28.7C177.881 27.45 179.131 26.3 180.481 24.95C179.281 23.9 178.081 23.1 176.581 22.35V28.7Z" fill="white"/>
</svg>
