<svg width="139" height="117" viewBox="0 0 139 117" fill="none" xmlns="http://www.w3.org/2000/svg">
<g id="SN" filter="url(#filter0_b_103_2)">
<path d="M14.583 92.616L15.0569 90.673L14.583 92.616ZM1.623 87.624L-0.206373 86.8157L-0.917961 88.4261L0.589262 89.3361L1.623 87.624ZM8.919 71.112L9.92244 69.3819L7.99171 68.2621L7.08963 70.3037L8.919 71.112ZM19.575 75.624L19.009 77.5422L19.0275 77.5477L19.0461 77.5528L19.575 75.624ZM36.183 76.872L36.595 78.8291L36.6317 78.8214L36.6681 78.8123L36.183 76.872ZM38.967 75.624L40.2957 77.1188L40.3397 77.0798L40.3812 77.0382L38.967 75.624ZM37.815 70.728L36.887 72.4997L36.887 72.4997L37.815 70.728ZM32.439 69L31.9809 70.9468L32.0137 70.9546L32.0468 70.9612L32.439 69ZM25.239 67.464L24.8102 69.4175L24.833 69.4225L24.856 69.427L25.239 67.464ZM17.271 65.256L16.6247 67.1487L16.6316 67.1511L16.6385 67.1534L17.271 65.256ZM9.975 61.704L8.85438 63.3606L8.86546 63.3681L8.87664 63.3754L9.975 61.704ZM4.695 55.944L2.94452 56.9114L2.95002 56.9213L2.95563 56.9312L4.695 55.944ZM6.135 35.592L4.48512 34.4615L4.48057 34.4682L6.135 35.592ZM16.599 27.336L15.796 25.5042L15.7867 25.5084L16.599 27.336ZM47.415 25.704L46.9901 27.6583L46.9901 27.6583L47.415 25.704ZM59.319 30.12L61.1661 30.8869L61.8463 29.2487L60.301 28.3777L59.319 30.12ZM52.503 46.536L51.6086 48.3249L53.5274 49.2843L54.3501 47.3029L52.503 46.536ZM42.807 42.792L42.2842 44.7225L42.2941 44.7251L42.807 42.792ZM28.599 42.12L28.0243 40.2043L28.0243 40.2043L28.599 42.12ZM25.815 43.656L24.3284 42.3181L24.2896 42.3612L24.2533 42.4066L25.815 43.656ZM27.063 48.552L26.135 50.3237L26.1687 50.3413L26.2031 50.3577L27.063 48.552ZM32.343 50.184L31.9397 52.1429L31.9508 52.1452L32.343 50.184ZM39.639 51.624L39.256 53.587L39.2648 53.5887L39.639 51.624ZM47.607 53.736L46.9607 55.6287L46.9607 55.6287L47.607 53.736ZM54.807 57.288L53.6864 58.9446L53.6975 58.9521L53.7086 58.9594L54.807 57.288ZM60.183 63.048L58.4436 64.0352L58.4436 64.0352L60.183 63.048ZM58.647 83.208L56.9971 82.0775L56.9926 82.0842L58.647 83.208ZM48.279 91.464L49.0913 93.2916L49.1018 93.2869L49.1123 93.2821L48.279 91.464ZM30.903 92.536C25.4239 92.536 20.1433 91.9135 15.0569 90.673L14.1091 94.559C19.5187 95.8785 25.1181 96.536 30.903 96.536V92.536ZM15.0569 90.673C9.93973 89.4249 5.82475 87.8246 2.65674 85.9119L0.589262 89.3361C4.20525 91.5194 8.73027 93.2471 14.1091 94.559L15.0569 90.673ZM3.45237 88.4323L10.7484 71.9203L7.08963 70.3037L-0.206373 86.8157L3.45237 88.4323ZM7.91556 72.8421C11.2663 74.7855 14.9673 76.3496 19.009 77.5422L20.141 73.7058C16.3747 72.5944 12.9717 71.1505 9.92244 69.3819L7.91556 72.8421ZM19.0461 77.5528C23.168 78.683 27.1862 79.256 31.095 79.256V75.256C27.5798 75.256 23.918 74.741 20.1039 73.6952L19.0461 77.5528ZM31.095 79.256C33.3229 79.256 35.1792 79.1272 36.595 78.8291L35.771 74.9149C34.7548 75.1288 33.2191 75.256 31.095 75.256V79.256ZM36.6681 78.8123C38.0672 78.4625 39.3638 77.9472 40.2957 77.1188L37.6383 74.1292C37.4182 74.3248 36.8588 74.6415 35.6979 74.9317L36.6681 78.8123ZM40.3812 77.0382C41.307 76.1124 41.831 74.9411 41.831 73.608H37.831C37.831 73.8109 37.779 73.9836 37.5528 74.2098L40.3812 77.0382ZM41.831 73.608C41.831 71.4521 40.5522 69.904 38.743 68.9563L36.887 72.4997C37.7658 72.96 37.831 73.3319 37.831 73.608H41.831ZM38.743 68.9563C37.1682 68.1314 35.1737 67.5073 32.8312 67.0388L32.0468 70.9612C34.1843 71.3887 35.7738 71.9165 36.887 72.4997L38.743 68.9563ZM32.8971 67.0532C30.6919 66.5343 28.2665 66.017 25.622 65.501L24.856 69.427C27.4595 69.935 29.8341 70.4417 31.9809 70.9468L32.8971 67.0532ZM25.6678 65.5105C23.1163 64.9504 20.5282 64.2336 17.9035 63.3586L16.6385 67.1534C19.3898 68.0704 22.1137 68.8256 24.8102 69.4175L25.6678 65.5105ZM17.9173 63.3633C15.4472 62.5198 13.1678 61.4089 11.0734 60.0326L8.87664 63.3754C11.2622 64.9431 13.8468 66.2002 16.6247 67.1487L17.9173 63.3633ZM11.0956 60.0474C9.18406 58.7543 7.6321 57.0671 6.43437 54.9568L2.95563 56.9312C4.4459 59.5569 6.41394 61.7097 8.85438 63.3606L11.0956 60.0474ZM6.44548 54.9766C5.30586 52.9145 4.679 50.2612 4.679 46.92H0.679C0.679 50.7468 1.39614 54.1095 2.94452 56.9114L6.44548 54.9766ZM4.679 46.92C4.679 43.1545 5.71407 39.7712 7.78943 36.7158L4.48057 34.4682C1.94793 38.1968 0.679 42.3655 0.679 46.92H4.679ZM7.78486 36.7225C9.9045 33.6289 13.0723 31.0921 17.4113 29.1636L15.7867 25.5084C10.9097 27.6759 7.1015 30.6431 4.48514 34.4615L7.78486 36.7225ZM17.402 29.1677C21.748 27.2626 27.2469 26.264 33.975 26.264V22.264C26.8791 22.264 20.794 23.3134 15.796 25.5043L17.402 29.1677ZM33.975 26.264C38.377 26.264 42.7145 26.7289 46.9901 27.6583L47.8399 23.7496C43.2835 22.7591 38.6611 22.264 33.975 22.264V26.264ZM46.9901 27.6583C51.2337 28.5809 55.0103 29.9873 58.337 31.8623L60.301 28.3777C56.5877 26.2847 52.4283 24.7471 47.8399 23.7496L46.9901 27.6583ZM57.4719 29.3531L50.6559 45.7691L54.3501 47.3029L61.1661 30.8869L57.4719 29.3531ZM53.3974 44.7471C49.9649 43.0309 46.6052 41.7305 43.3199 40.8589L42.2941 44.7251C45.2808 45.5175 48.3851 46.7131 51.6086 48.3249L53.3974 44.7471ZM43.3298 40.8615C40.1011 39.9871 36.9173 39.544 33.783 39.544V43.544C36.5368 43.544 39.3689 43.9329 42.2842 44.7225L43.3298 40.8615ZM33.783 39.544C31.5182 39.544 29.5704 39.7405 28.0243 40.2043L29.1737 44.0357C30.1876 43.7315 31.6959 43.544 33.783 43.544V39.544ZM28.0243 40.2043C26.571 40.6403 25.2497 41.2944 24.3284 42.3181L27.3016 44.9939C27.5323 44.7376 28.067 44.3677 29.1737 44.0356L28.0243 40.2043ZM24.2533 42.4066C23.478 43.3757 23.047 44.5142 23.047 45.768H27.047C27.047 45.4858 27.128 45.2163 27.3767 44.9054L24.2533 42.4066ZM23.047 45.768C23.047 47.9036 24.3753 49.4019 26.135 50.3237L27.991 46.7803C27.0627 46.2941 27.047 45.9364 27.047 45.768H23.047ZM26.2031 50.3577C27.745 51.0919 29.6751 51.6767 31.9397 52.1429L32.7463 48.2251C30.6589 47.7953 29.0691 47.2921 27.9229 46.7463L26.2031 50.3577ZM31.9508 52.1452C34.1943 52.5939 36.6294 53.0745 39.256 53.587L40.022 49.661C37.4006 49.1495 34.9717 48.6701 32.7352 48.2228L31.9508 52.1452ZM39.2648 53.5887C41.8593 54.0829 44.4244 54.7626 46.9607 55.6287L48.2533 51.8433C45.5416 50.9174 42.7947 50.1891 40.0132 49.6593L39.2648 53.5887ZM46.9607 55.6287C49.4261 56.4705 51.6652 57.5773 53.6864 58.9446L55.9276 55.6314C53.5968 54.0547 51.0359 52.7934 48.2533 51.8433L46.9607 55.6287ZM53.7086 58.9594C55.6795 60.2545 57.2535 61.9383 58.4436 64.0352L61.9224 62.0608C60.4245 59.4217 58.4146 57.2655 55.9054 55.6166L53.7086 58.9594ZM58.4436 64.0352C59.5739 66.0266 60.199 68.6072 60.199 71.88H64.199C64.199 68.1128 63.4801 64.8054 61.9224 62.0608L58.4436 64.0352ZM60.199 71.88C60.199 75.5628 59.1426 78.9463 56.9971 82.0775L60.2969 84.3385C62.8874 80.5577 64.199 76.3892 64.199 71.88H60.199ZM56.9926 82.0842C54.9372 85.1102 51.7998 87.6502 47.4457 89.6459L49.1123 93.2821C53.9742 91.0538 57.7488 88.0898 60.3014 84.3318L56.9926 82.0842ZM47.4667 89.6364C43.1926 91.536 37.6997 92.536 30.903 92.536V96.536C38.0584 96.536 44.1494 95.488 49.0913 93.2916L47.4667 89.6364ZM66.9408 93H64.9408V95H66.9408V93ZM66.9408 25.8V23.8H64.9408V25.8H66.9408ZM85.5648 25.8L87.0994 24.5175L86.4998 23.8H85.5648V25.8ZM119.741 66.696V68.696H124.019L121.275 65.4135L119.741 66.696ZM111.101 66.696H109.101V68.696H111.101V66.696ZM111.101 25.8V23.8H109.101V25.8H111.101ZM133.181 25.8H135.181V23.8H133.181V25.8ZM133.181 93V95H135.181V93H133.181ZM114.557 93L113.022 94.2825L113.622 95H114.557V93ZM80.3808 52.104V50.104H76.103L78.8461 53.3865L80.3808 52.104ZM89.0208 52.104H91.0208V50.104H89.0208V52.104ZM89.0208 93V95H91.0208V93H89.0208ZM68.9408 93V25.8H64.9408V93H68.9408ZM66.9408 27.8H85.5648V23.8H66.9408V27.8ZM84.0301 27.0825L118.206 67.9785L121.275 65.4135L87.0994 24.5175L84.0301 27.0825ZM119.741 64.696H111.101V68.696H119.741V64.696ZM113.101 66.696V25.8H109.101V66.696H113.101ZM111.101 27.8H133.181V23.8H111.101V27.8ZM131.181 25.8V93H135.181V25.8H131.181ZM133.181 91H114.557V95H133.181V91ZM116.091 91.7175L81.9154 50.8215L78.8461 53.3865L113.022 94.2825L116.091 91.7175ZM80.3808 54.104H89.0208V50.104H80.3808V54.104ZM87.0208 52.104V93H91.0208V52.104H87.0208ZM89.0208 91H66.9408V95H89.0208V91Z" fill="white"/>
</g>
<defs>
<filter id="filter0_b_103_2" x="-2.37701" y="20.264" width="139.558" height="78.272" filterUnits="userSpaceOnUse" color-interpolation-filters="sRGB">
<feFlood flood-opacity="0" result="BackgroundImageFix"/>
<feGaussianBlur in="BackgroundImageFix" stdDeviation="2"/>
<feComposite in2="SourceAlpha" operator="in" result="effect1_backgroundBlur_103_2"/>
<feBlend mode="normal" in="SourceGraphic" in2="effect1_backgroundBlur_103_2" result="shape"/>
</filter>
</defs>
</svg>
